# xmcd
#
# Track frame offsets:
# 150
# 26772
# 64416
# 87962
# 120766
# 162653
# 202514
# 239203
# 267250
# 300418
#
# Disc length: 4467 seconds
#
#
# Revision: 0
# Processed by: cddbd v1.5.2PL0 Copyright (c) Steve Scherf et al.
# Submitted via: FreeRIP 2.96 
#
DISCID=8111710a
DTITLE=Iny Lorentz - Die Rose von Asturien CD3v6
DYEAR=2009
DGENRE=Speech
TTITLE0=23 Die Rose von Asturien
TTITLE1=24 Die Rose von Asturien
TTITLE2=25 Die Rose von Asturien
TTITLE3=26 Die Rose von Asturien
TTITLE4=27 Die Rose von Asturien
TTITLE5=28 Die Rose von Asturien
TTITLE6=29 Die Rose von Asturien
TTITLE7=30 Die Rose von Asturien
TTITLE8=31 Die Rose von Asturien
TTITLE9=32 Die Rose von Asturien
EXTD=gelesen von Danna Geissler
EXTT0=
EXTT1=
EXTT2=
EXTT3=
EXTT4=
EXTT5=
EXTT6=
EXTT7=
EXTT8=
EXTT9=
PLAYORDER=
